<svg xmlns="http://www.w3.org/2000/svg" viewBox="0 0 1215.5 675">
  <defs>
    <style>
      .cls-1 {
        fill: #015db9;
        stroke: #000;
        stroke-linecap: round;
        stroke-linejoin: round;
        stroke-width: 3px;
      }
    </style>
  </defs>
  <g id="Layer_2" data-name="Layer 2">
    <g id="worldmap">
      <g id="worldmap-2" data-name="worldmap">
        <g>
          <rect class="cls-1" x="28.5" y="453.5" width="9.6" height="10.22"/>
          <polygon class="cls-1" points="19.5 443.5 24.5 444.5 28.5 447.95 26.5 450.5 21.5 449.5 18.21 447 19.5 443.5"/>
          <rect class="cls-1" x="12.5" y="439.5" width="3.83" height="4"/>
          <polygon class="cls-1" points="2.5 435.5 4.69 435.5 4.69 439.5 1.5 439.5 2.5 435.5"/>
        </g>
        <path class="cls-1" d="M382.5,4.5h22.57s-.57,4,1.43,6a17.27,17.27,0,0,1,3,4h21.75l4.25-13h56l16,16V37.25l-20,25.25v61l-44,45v36l-3,4H425.9l-45.4-46v-92l-31,0V18.38l30,.12,3-3Z"/>
        <polygon class="cls-1" points="493.5 171.5 498.12 171.5 498.5 178.5 500.5 179.5 502.5 178.5 503.33 171.5 524.03 171.5 524.5 182.5 509 194.92 503.9 194.92 491.5 189.5 491.5 171.5 493.5 171.5"/>
        <polygon class="cls-1" points="290.5 395.5 290.5 402.24 312.5 402.5 312.5 395.5 290.5 395.5"/>
        <polygon class="cls-1" points="319.5 404.5 319.5 412.47 339.5 412.5 339.5 404.5 319.5 404.5"/>
        <polygon class="cls-1" points="536 255 540.97 255 540.97 249.17 550.73 249.17 550.73 265.5 543.37 268.69 536 268.69 536 255"/>
        <polygon class="cls-1" points="554 231 562.74 231 562.74 245.23 572 253 572 273.2 554 273.2 554 267.19 563 259.68 554 252.1 554 231"/>
        <rect class="cls-1" x="1051" y="257" width="6.86" height="39"/>
        <polygon class="cls-1" points="1042 308 1051 308 1051 340.77 1014 363 1009 355 1041.67 335.5 1042 308"/>
        <rect class="cls-1" x="978" y="385" width="5.11" height="11.94"/>
        <polygon class="cls-1" points="974 421 981 416 1000 447 993 452 974 421"/>
        <polygon class="cls-1" points="956 451 970.02 451 970.02 484.79 939.33 484.79 939.33 468.88 957 461 956 451"/>
        <polygon class="cls-1" points="889 461 895 455 927.64 484.79 922 492 889 461"/>
        <rect class="cls-1" x="931" y="495" width="26.63" height="5.84"/>
        <polygon class="cls-1" points="732 517 732 527.35 721.35 527.35 716 564 733.18 564 741 532 741 517 732 517"/>
        <polygon class="cls-1" points="1027 488 1039.56 488 1039.56 501.68 1079.55 501.68 1079.55 497.92 1059 477 1035.06 477 1027 488"/>
        <path class="cls-1" d="M1048,511h9.87v17L1094,572l-17,42h-36V596.43h-11V586H997l-35,11-9-44,28-10V531l18-10,5,5,4,1,2-2v-9h21v13s4,5,8,4,9-6,9-6Z"/>
        <rect class="cls-1" x="1162" y="607" width="11.16" height="12.66"/>
        <polygon class="cls-1" points="1156 624 1163 631 1141 654 1134 647 1156 624"/>
        <path class="cls-1" d="M401.69,469.5v-14H367.06v-18H290.47v-26h-17v-13h-11s-3,10-8,10-9-6-9-6v-36h40.56v19h8.44v-24l20.28-16v-24h17.83v-14H343.5v-17l37-22.18V258.5l-19-17.78V217.5l-11-.05V230.5h-14l-1-19-14-9h-12v20l-4,5,8,7.4v8.6l-9.6,9.42v17.46H294V251.51H273.5s-21,1-22-25,29-28.57,29-28.57V176.5l-21-18.37h-12v14.08h-64V160.5l-33-10-31,11h-26l-51-20-32,30s13,13,13,15a1.79,1.79,0,0,1-1.73,2H7.5v12.9l22,.1v15h-18v11l12,14,27-1,14-17h31l56,60-.68,47,24.68,30h9l32,35v10l25,16h39v25h32v13l-18,31,22,38h17v122l21.73,23h5.27l3-3-6-7-.3-46h18.3l.29-22H390.5l18-28v-13l31-19v-21l13-10.85V491.5ZM260.5,284.5h29.88L290,299.73l6.54-.23v9.55l7,.45v6.87l-14,.13.46-16.77-8.46.31V314.5s-1,3-4,3-4-3-4-3V293.66h-13Z"/>
        <path class="cls-1" d="M1170,136h-58v-7h-34.35V108H1045v11h-26v13s-3,2-5,2-5-3-5-3V99H953.73V59H931.59V48H910V66H886L866,79V97l-18-1-21,22H802v27H776l-3,6-40,1-36,38s-3,1-6-2a4.74,4.74,0,0,1-1-6l14-14-25-27-7,6s-2,2-3,0,0-14,0-14H636l-29,58-18,12v25.71h10.91V222L609,222v21.35h21.32V199L644,186V175.21h11.66v12.11L643,200v13h30v7.54H656l-13.22,13.23V251h-15l-3.38,7.93H589L567,281V309H541.34v30.13H567V318h12v-9h25.17L621,326s2,2,5,0,1-6,1-6l-14-15s-2-1,1-4,6-2,6-2l19,18v19s-.47,3.16,4.27,3.08S649,336,649,336V323h18V297h35v11l7,3-1,9H696l-10-5-18,8h-1v18h25v19H657.06v-5H640v8.58H606.1V339H577l-5.35,5.36H553l-13.32,13.32V369l-27.34,27.34v32.84l30.72,30.72H572V446.07h29V487h17.49v57L630,552v46h28l25-26V554h8V530h15V480l37-33V435.09L713,435l-29-59a14.39,14.39,0,0,1,2-3c1-1,4,0,4,0l29,56,44-18V389.9l-14,.1-15-16s-1-4,1-6,6-1,6-1l13,12h8l5,5h30l11,17h10v19.17L832,445l9-10V420.31l6-.31,19-23h21v21.48h18V452a4.38,4.38,0,0,0,3,1c2,0,4-2,4-2V431.86s-1-1.86,1-1.86,14,12,14,12l18-19-18-17v-8h24l32-27V357.48l-17.74-17.74L983,322l22,22s2,1,5-2a9.29,9.29,0,0,0,3-6l-12.5-12.5L1014,310h14l18-24V257.43L1035,256s-7-4-7-14,12-16,12-16h53V208h28s4,1,4,3-26,28-26,28v31s0,2,4,2,34-57,34-57l6,4,41-46,17,13,13-14ZM756,302h-9.12v13.5h5.92V339H741l-4.82-4.28V318H730V292h26Z"/>
      </g>
    </g>
  </g>
</svg>
