<svg id="magnifying" xmlns="http://www.w3.org/2000/svg" xmlns:xlink="http://www.w3.org/1999/xlink" viewBox="0 0 481.19 490.09">
  <defs>
    <style>
      .cls-1 {
        fill: none;
        stroke-miterlimit: 10;
      }

      .cls-1, .cls-2, .cls-5, .cls-6, .cls-7 {
        stroke: #000;
      }

      .cls-1, .cls-5, .cls-6, .cls-7 {
        stroke-width: 5px;
      }

      .cls-2 {
        fill: #e5771a;
        stroke-width: 7px;
      }

      .cls-2, .cls-5, .cls-6, .cls-7 {
        stroke-linecap: round;
        stroke-linejoin: round;
      }

      .cls-3 {
        clip-path: url(#clip-path);
      }

      .cls-4 {
        clip-path: url(#clip-path-2);
      }

      .cls-5 {
        fill: #ffbb29;
      }

      .cls-6 {
        fill: #fc9d01;
      }

      .cls-7 {
        fill: #cf3823;
      }

      .cls-8 {
        clip-path: url(#clip-path-3);
      }
    </style>
    <clipPath id="clip-path" transform="translate(16.02 52.93)">
      <polygon class="cls-1" points="262.9 294.21 263.09 294.4 303.15 254.35 278.93 229.57 278.77 229.73 221.78 171.43 182.17 211.94 262.75 294.36 262.9 294.21"/>
    </clipPath>
    <clipPath id="clip-path-2" transform="translate(16.02 52.93)">
      <polygon class="cls-1" points="300.9 332.21 301.09 332.4 341.15 292.35 316.93 267.57 316.77 267.73 259.78 209.43 220.17 249.94 300.75 332.36 300.9 332.21"/>
    </clipPath>
    <clipPath id="clip-path-3" transform="translate(16.02 52.93)">
      <path class="cls-1" d="M118.25-.5A116.5,116.5,0,1,0,234.75,116,116.5,116.5,0,0,0,118.25-.5Zm0,209.7a93.2,93.2,0,1,1,93.2-93.2A93.2,93.2,0,0,1,118.25,209.2Z"/>
    </clipPath>
  </defs>
  <path class="cls-2" d="M293.5,198.25c-9.51-2-37.54-.31-46.91,1.23s-9.08-2.95-9.4,3.32,2.08,11.09,2,22.13,4.81,34.73,5.37,41.71,22.27,14.78,32.21,13.71S293.5,198.25,293.5,198.25Z" transform="translate(16.02 52.93)"/>
  <g id="handle">
    <g class="cls-3">
      <image width="512" height="1024" transform="matrix(0.09, -0.09, 0.08, 0.08, 194.52, 265.06)" xlink:href="magnifying_withHands_21.png"/>
    </g>
    <polygon class="cls-1" points="278.91 347.13 279.11 347.33 319.17 307.27 294.94 282.49 294.79 282.66 237.79 224.36 198.19 264.87 278.76 347.29 278.91 347.13"/>
  </g>
  <g id="handle-2" data-name="handle">
    <g class="cls-4">
      <image width="512" height="1024" transform="matrix(0.09, -0.09, 0.08, 0.08, 232.52, 303.06)" xlink:href="magnifying_withHands_22.png"/>
    </g>
    <polygon class="cls-1" points="316.91 385.13 317.11 385.33 357.17 345.27 332.94 320.49 332.79 320.66 275.79 262.36 236.19 302.87 316.76 385.29 316.91 385.13"/>
  </g>
  <g id="glass">
    <circle cx="134.56" cy="169.51" r="93.78"/>
  </g>
  <g id="hands">
    <path class="cls-5" d="M243.4,297c17.6-2.25,59.37-25.48,59.37-25.48l-9-70.42s-34.08,13.3-51.69,15.55l-44,5.62L207.62,297Z" transform="translate(16.02 52.93)"/>
    <path class="cls-6" d="M293.26,242.43c-3.66-19.5,3.41-24.87,3.41-24.87l7.83-.37s-2.47,7.44,1.19,26.95l3.66,19.5S296.92,261.93,293.26,242.43Z" transform="translate(16.02 52.93)"/>
    <path class="cls-7" d="M374,234.39,359.74,196s-17.5,6.21-44.62,13.43-9.94,17.17-8.67,32.95,3.41,23.63,15.71,26.16,81.15,10.33,108.27,3.1c0,0,29.65-19.51,32.18-31.8s-72.2-85.67-76.49-80-29.06,32.6-24.18,40S374,234.39,374,234.39Z" transform="translate(16.02 52.93)"/>
  </g>
  <g id="glasscover">
    <g class="cls-8">
      <image width="640" height="1136" transform="scale(0.43)" xlink:href="magnifying_withHands_23.png"/>
    </g>
    <path class="cls-1" d="M118.25-.5A116.5,116.5,0,1,0,234.75,116,116.5,116.5,0,0,0,118.25-.5Zm0,209.7a93.2,93.2,0,1,1,93.2-93.2A93.2,93.2,0,0,1,118.25,209.2Z" transform="translate(16.02 52.93)"/>
  </g>
</svg>
