<svg id="Layer_2" data-name="Layer 2" xmlns="http://www.w3.org/2000/svg" viewBox="0 0 950.05 987">
  <defs>
    <style>
      .cls-1 {
        fill: #efcd3f;
      }

      .cls-1, .cls-2, .cls-3, .cls-4, .cls-5 {
        stroke: #000;
        stroke-linecap: round;
        stroke-linejoin: round;
      }

      .cls-1, .cls-3 {
        stroke-width: 7px;
      }

      .cls-2, .cls-3, .cls-4 {
        fill: none;
      }

      .cls-2 {
        stroke-width: 12px;
      }

      .cls-4 {
        stroke-width: 9px;
      }

      .cls-5 {
        fill: #fff;
        stroke-width: 5px;
      }
    </style>
  </defs>
  <path class="cls-1" d="M412.67,101.5H404V68.94A13.44,13.44,0,0,0,390.56,55.5H191.44A13.44,13.44,0,0,0,178,68.94V101.5H164.28c-53,0-96.33,43.35-96.33,96.33V404.17C68,454,106.33,495.34,155,500.05v20a13.44,13.44,0,0,0,13.44,13.44H412.56A13.44,13.44,0,0,0,426,520.06V499.57c46.73-6.55,83-46.94,83-95.4V197.83C509,144.85,465.65,101.5,412.67,101.5Z" transform="translate(-62.45 -52)"/>
  <path class="cls-1" d="M912.67,102.5H904V69.94A13.44,13.44,0,0,0,890.56,56.5H691.44A13.44,13.44,0,0,0,678,69.94V102.5H664.28c-53,0-96.33,43.35-96.33,96.33V405.17c0,49.85,38.38,91.17,87,95.88v20a13.44,13.44,0,0,0,13.44,13.44H912.56A13.44,13.44,0,0,0,926,521.06V500.57c46.73-6.55,83-46.94,83-95.4V198.83C1009,145.85,965.65,102.5,912.67,102.5Z" transform="translate(-62.45 -52)"/>
  <path class="cls-1" d="M911.67,603.5H903V570.94a13.44,13.44,0,0,0-13.44-13.44H690.44A13.44,13.44,0,0,0,677,570.94V603.5H663.28c-53,0-96.33,43.35-96.33,96.33V906.17c0,49.85,38.38,91.17,87,95.88v20a13.44,13.44,0,0,0,13.44,13.44H911.56A13.44,13.44,0,0,0,925,1022.06v-20.49c46.73-6.55,83-46.94,83-95.4V699.83C1008,646.85,964.65,603.5,911.67,603.5Z" transform="translate(-62.45 -52)"/>
  <path class="cls-1" d="M410.67,601.5H402V568.94a13.44,13.44,0,0,0-13.44-13.44H189.44A13.44,13.44,0,0,0,176,568.94V601.5H162.28c-53,0-96.33,43.35-96.33,96.33V904.17c0,49.85,38.38,91.17,87.05,95.88v20a13.44,13.44,0,0,0,13.44,13.44H410.56A13.44,13.44,0,0,0,424,1020.06V999.57c46.73-6.55,83-46.94,83-95.4V697.83C507,644.85,463.65,601.5,410.67,601.5Z" transform="translate(-62.45 -52)"/>
  <circle cx="287.05" cy="229" r="22.5"/>
  <circle cx="655.05" cy="243" r="19"/>
  <circle cx="784.05" cy="243" r="19"/>
  <path class="cls-2" d="M207.5,283c3-3,11-8,24-8,12,0,23,9,23,9" transform="translate(-62.45 -52)"/>
  <path class="cls-3" d="M687.48,271.39c1.08-4.11,5.36-12.63,16.68-19C711,248.5,721,247.5,721,247.5" transform="translate(-62.45 -52)"/>
  <path class="cls-3" d="M843,249.5c4.09-1.12,15.24-.33,22.16,4.86S876,271.5,876,271.5" transform="translate(-62.45 -52)"/>
  <circle cx="656.55" cy="742.5" r="20.5"/>
  <circle cx="780.55" cy="742.5" r="20.5"/>
  <path class="cls-4" d="M819.48,758.39c1.08-4.11,6.2-11.5,17.52-17.89,6.84-3.86,24-4,24-4" transform="translate(-62.45 -52)"/>
  <path class="cls-4" d="M704,736.5c4.09-1.12,23.08,1.8,30,7s12,19,12,19" transform="translate(-62.45 -52)"/>
  <path class="cls-3" d="M333,372.5c5,1,14.34,3.71,19.35,9.95C358,389.5,358,398.5,358,398.5" transform="translate(-62.45 -52)"/>
  <path class="cls-2" d="M345.5,386c-3,3-29,18-55,18-32,0-58-18-58-18" transform="translate(-62.45 -52)"/>
  <path class="cls-2" d="M342.5,891c-3,3-29,18-55,18-32,0-58-18-58-18" transform="translate(-62.45 -52)"/>
  <path class="cls-2" d="M900.5,886c-1.79,3.85-16,23-57,36-30.5,9.67-76,11-76,11" transform="translate(-62.45 -52)"/>
  <path class="cls-5" d="M708,359.5c21.92-8.22,72,16,79,18s21,5,27,3,9.66-6.58,15.33-10.29S843,363.5,848,364.5c20.78,4.16,34,23,39,42s5,42-3,49-22,10.19-37.5,3.1-35.5-18.27-58-20.69S740,443.5,724,450.5s-36.94-9.2-41-39.6S692,365.5,708,359.5Z" transform="translate(-62.45 -52)"/>
  <rect x="26.55" y="718.5" width="60" height="11"/>
  <rect x="350.05" y="719" width="60" height="11"/>
  <path d="M380.34,752H194.66a17.21,17.21,0,0,0-17.16,17.16v49.68A17.21,17.21,0,0,0,194.66,836h58.68a17.19,17.19,0,0,0,17.09-15.85v0S275,789.5,277,784.5s7.5-5.5,9.47-5.48,9,1,11,4c1.67,2.51,5.76,28.6,7.07,37.12a16.76,16.76,0,0,0,.38,2.57l0,.12v0A17.21,17.21,0,0,0,321.66,836h58.68a17.21,17.21,0,0,0,17.16-17.16V769.16A17.21,17.21,0,0,0,380.34,752Z" transform="translate(-62.45 -52)"/>
</svg>
